<?xml version="1.0" encoding="utf-8"?>
<!-- Generator: Adobe Illustrator 17.1.0, SVG Export Plug-In . SVG Version: 6.00 Build 0)  -->
<!DOCTYPE svg PUBLIC "-//W3C//DTD SVG 1.1//EN" "http://www.w3.org/Graphics/SVG/1.1/DTD/svg11.dtd">
<svg version="1.1" id="Layer_1" xmlns="http://www.w3.org/2000/svg" xmlns:xlink="http://www.w3.org/1999/xlink" x="0px" y="0px"
	 viewBox="0 0 32 32" style="enable-background:new 0 0 32 32;" xml:space="preserve">
<g>
	<g>
		<path style="fill:#23D0E7;" d="M16,26c-5.5139971,0-10-4.486002-10-10S10.4860029,6,16,6s10,4.4860029,10,10S21.513998,26,16,26z
			 M16,7.3333335c-4.7789717,0-8.666666,3.8876948-8.666666,8.666666S11.2210283,24.666666,16,24.666666
			S24.666666,20.7789707,24.666666,16S20.7789707,7.3333335,16,7.3333335z"/>
	</g>
	<g>
		<path style="fill:#23D0E7;" d="M19.8352871,20.5019531c-0.1705742,0-0.3411465-0.0651035-0.4713554-0.1953125
			l-3.8352861-3.8352871c-0.125-0.125-0.1953125-0.2945957-0.1953125-0.4713535V9.0247393
			c0-0.3681641,0.2985029-0.666666,0.666667-0.666666s0.666666,0.298502,0.666666,0.666666v6.6992188l3.6399746,3.6399736
			c0.260416,0.2604179,0.260416,0.6822929,0,0.942709C20.1764317,20.4368496,20.0058594,20.5019531,19.8352871,20.5019531z"/>
	</g>
</g>
<rect style="fill:none;" width="32" height="32"/>
</svg>
