<?xml version="1.0" encoding="utf-8"?>
<!-- Generator: Adobe Illustrator 17.1.0, SVG Export Plug-In . SVG Version: 6.00 Build 0)  -->
<!DOCTYPE svg PUBLIC "-//W3C//DTD SVG 1.1//EN" "http://www.w3.org/Graphics/SVG/1.1/DTD/svg11.dtd">
<svg version="1.1" id="Layer_1" xmlns="http://www.w3.org/2000/svg" xmlns:xlink="http://www.w3.org/1999/xlink" x="0px" y="0px"
	 viewBox="0 0 200 24" style="enable-background:new 0 0 200 24;" xml:space="preserve">
<polygon style="fill:#165978;" points="29.7208614,1 24.1688595,19.6422729 18.6168575,1 18.1688595,1 16.1688595,1 15.7208614,1 
	10.1688595,19.6422729 4.6168575,1 2.1688595,1 8.7208614,23 9.1688595,23 11.1688595,23 11.6168575,23 17.1688595,4.3577271 
	22.7208614,23 23.1688595,23 25.1688595,23 25.6168575,23 32.1688576,1 "/>
<path style="fill:#165978;" d="M50.255703,1h3.9742432l9.0284004,19.8382282l0,0V1h2.4159851v22H61.255703L52.7037048,3.1617713l0,0
	V23H50.255703V1z"/>
<path style="fill:#165978;" d="M71.8875351,23V1h7.8524323c6.3902283,0,8.1386642,4.4511333,8.1386642,10.6822348
	C87.8786316,17.9768906,86.225769,23,79.7399673,23H71.8875351z M79.7399673,3.1617713h-5.4044266v17.6764565h5.4044266
	c4.5782394,0,5.6271057-4.3870945,5.6271057-9.1559935S84.3182068,3.1617713,79.7399673,3.1617713z"/>
<path style="fill:#165978;" d="M92.5271835,1h13.3844528v2.1617713H94.9751892v7.5982184h9.0288849v2.1302366h-9.0288849v7.9480019
	h10.9364471V23H92.5271835V1z"/>
<path style="fill:#165978;" d="M112.3668594,14.5751085V23h-2.447998V1h8.1386566
	c4.6097794,0,7.0262451,2.0346653,7.0262451,6.6764574c0,3.2426567-1.2720337,5.5-4.037796,6.3902273L125.2744217,23h-2.7022171
	l-3.9742432-8.4248915H112.3668594z M118.057518,3.1617713h-5.6906586v9.2515659h5.7226791
	c3.3062134,0,4.482666-1.9711123,4.482666-4.7368793C122.5722046,4.6559935,121.1415405,3.1617713,118.057518,3.1617713z"/>
<path style="fill:#165978;" d="M143.9188538,22.3511944C142.4048157,22.6600361,140.0566711,23,138.0173645,23
	c-6.3961182,0-7.8177338-3.8933086-7.8177338-10.9382315C130.1996307,4.8315401,131.5901337,1,138.0173645,1
	c2.1934967,0,4.5421143,0.4017317,5.9014893,0.6799263l-0.0924072,2.0081873
	c-1.3905029-0.2470744-3.8933105-0.5559175-5.5620117-0.5559175c-4.7585449,0-5.5926514,2.8427711-5.5926514,8.9295731
	c0,5.9637365,0.7723389,8.8065062,5.6544189,8.8065062c1.7304688,0,4.0168457-0.2781944,5.5002441-0.5563889L143.9188538,22.3511944
	z"/>
<path style="fill:#165978;" d="M152.9593048,1h3.7065582l6.040451,22h-2.4159851l-1.589798-5.6591244h-7.7758942L149.3348389,23
	h-2.4159851L152.9593048,1z M151.4650726,15.1475697h6.6950226l-3.3382263-12.0493517h-0.019043L151.4650726,15.1475697z"/>
<path style="fill:#165978;" d="M179.0510559,3.6263449c0,0-4.2950439-0.525269-6.0868073-0.525269
	c-3.0280762,0-4.6349945,1.0811865-4.6349945,3.4915769c0,2.7805305,1.4829102,3.2440314,5.2220306,4.0786147
	c4.2639313,0.9576492,6.1485748,2.0081873,6.1485748,5.7473097c0,4.7274208-2.5952301,6.5814228-6.8284912,6.5814228
	c-2.5339355,0-6.7667389-0.6799259-6.7667389-0.6799259l0.2470856-1.9775391c0,0,4.2021484,0.5563889,6.3961182,0.5563889
	c3.0280762,0,4.5732269-1.3287315,4.5732269-4.2950401c0-2.4103909-1.2669678-3.0898457-4.7585449-3.7697716
	c-4.4185638-0.9576492-6.6436615-2.0086584-6.6436615-6.0872736C165.9188538,2.6064556,168.638092,1,172.8096008,1
	c2.5339203,0,6.4578857,0.6176862,6.4578857,0.6176862L179.0510559,3.6263449z"/>
<path style="fill:#165978;" d="M184.4466858,1h13.3844604v2.1617713h-10.9364471v7.5982184h9.0288849v2.1302366h-9.0288849
	v7.9480019h10.9364471V23h-13.3844604V1z"/>
<g>
	<path style="fill:#C8E052;" d="M38.9489136,6.8717728l3.664917,10.1164627l-2.4144287-1.9343491l-1.2504883-1.0018234
		l-1.2504883,1.0018234l-2.4144897,1.9343719L38.9489136,6.8717728 M38.9489136,1l-7.9700928,21.9999695V23l7.9700928-6.3852463
		L46.9189453,23L38.9489136,1L38.9489136,1z"/>
</g>
</svg>
