<?xml version="1.0" encoding="utf-8"?>
<!-- Generator: Adobe Illustrator 17.1.0, SVG Export Plug-In . SVG Version: 6.00 Build 0)  -->
<!DOCTYPE svg PUBLIC "-//W3C//DTD SVG 1.1//EN" "http://www.w3.org/Graphics/SVG/1.1/DTD/svg11.dtd">
<svg version="1.1" id="Layer_1" xmlns="http://www.w3.org/2000/svg" xmlns:xlink="http://www.w3.org/1999/xlink" x="0px" y="0px"
	 viewBox="0 0 32 32" style="enable-background:new 0 0 32 32;" xml:space="preserve">
<g>
	<g>
		<path style="fill:#23D0E7;" d="M23.6183167,25.8973789h-5.3834648c-0.3681641,0-0.666666-0.298502-0.666666-0.666666V17.902914
			h-3.1497393v7.3277988c0,0.3681641-0.2985029,0.666666-0.666667,0.666666H8.3683157
			c-0.3681641,0-0.6666665-0.298502-0.6666665-0.666666v-9.4049482l-1.7076821,0.0013027c-0.0003257,0-0.0006509,0-0.0006509,0
			c-0.2802734,0-0.5302734-0.1751308-0.6263022-0.4384766c-0.0960288-0.2633467-0.0169272-0.5585938,0.1979165-0.7389326
			l10-8.3912754c0.2473955-0.2076826,0.609374-0.2076826,0.8567705,0l9.9257813,8.3291016
			c0.1953125,0.1162109,0.3258457,0.3294277,0.3258457,0.572917c0,0.3704424-0.2994785,0.6809893-0.673502,0.666667
			c-0.0019531,0-0.0039063,0.0009766-0.0071621,0l-1.7076817-0.0013027v9.4049482
			C24.2849827,25.598877,23.9864807,25.8973789,23.6183167,25.8973789z M18.9015198,24.5640469h4.0501289v-9.4055996
			c0-0.1767578,0.0703125-0.3466797,0.1953125-0.4716797c0.125-0.1246748,0.2945976-0.1949873,0.4713554-0.1949873
			c0.0003242,0,0.0003242,0,0.0006504,0l0.5410156,0.0003262l-8.166667-6.8525395l-8.166666,6.8525395l0.5410161-0.0003262
			c0.0003252,0,0.0003252,0,0.0006504,0c0.1767578,0,0.3463545,0.0703125,0.4713545,0.1949873
			c0.125,0.125,0.1953125,0.2949219,0.1953125,0.4716797v9.4055996h4.0501299v-7.3278008
			c0-0.3681641,0.2985029-0.666666,0.666667-0.666666h4.4830723c0.3681641,0,0.6666679,0.298502,0.6666679,0.666666V24.5640469z"/>
	</g>
</g>
</svg>
