<?xml version="1.0" encoding="utf-8"?>
<!-- Generator: Adobe Illustrator 17.1.0, SVG Export Plug-In . SVG Version: 6.00 Build 0)  -->
<!DOCTYPE svg PUBLIC "-//W3C//DTD SVG 1.1//EN" "http://www.w3.org/Graphics/SVG/1.1/DTD/svg11.dtd">
<svg version="1.1" id="Layer_1" xmlns="http://www.w3.org/2000/svg" xmlns:xlink="http://www.w3.org/1999/xlink" x="0px" y="0px"
	 viewBox="0 0 100 100" style="enable-background:new 0 0 100 100;" xml:space="preserve">
<g>
	<path style="fill:#FFFFFF;" d="M61.7025909,38.2855492L49.3701591,64.6295319l-0.9177666-8.3130569l-0.4753036-4.3054047
		l-4.3054237-0.4753189l-8.3130531-0.9177895L61.7025909,38.2855492 M72.9267731,27.0613651h0.0135193H72.9267731z
		 M72.9267731,27.0613651L15.6374369,53.8802528l-0.0000515,0.0000496l27.4409752,3.0294762l3.0294762,27.4409752
		L72.9267731,27.0613651L72.9267731,27.0613651z"/>
	<g>
		<path style="fill:#FFFFFF;" d="M49.988121,100.011879c-13.358326,0-25.9180565-5.2034073-35.3639221-14.6492767
			c-19.49893-19.4989319-19.49893-51.2262726,0-70.7265244C24.0700645,5.1902108,36.6297951-0.0118799,49.988121-0.0118799
			s25.9167328,5.2020907,35.3626022,14.6479578S100,36.641674,100,50s-5.2034073,25.9167328-14.6492767,35.3626022
			S63.346447,100.011879,49.988121,100.011879z M49.988121,2.6914649c-12.6362915,0-24.5162239,4.9209323-33.4525757,13.8559628
			c-18.4442558,18.4455757-18.4442558,48.459568,0,66.9038239c8.9363499,8.936348,20.8162823,13.8572769,33.4525757,13.8572769
			s24.5149002-4.920929,33.4512482-13.8572769S97.2966537,62.6362877,97.2966537,50s-4.920929-24.516222-13.8572845-33.4525719
			C74.5030212,7.6123972,62.6244087,2.6914649,49.988121,2.6914649z"/>
	</g>
</g>
<rect style="fill:none;" width="100" height="100"/>
</svg>
