<?xml version="1.0" encoding="utf-8"?>
<!-- Generator: Adobe Illustrator 17.1.0, SVG Export Plug-In . SVG Version: 6.00 Build 0)  -->
<!DOCTYPE svg PUBLIC "-//W3C//DTD SVG 1.1//EN" "http://www.w3.org/Graphics/SVG/1.1/DTD/svg11.dtd">
<svg version="1.1" id="Layer_1" xmlns="http://www.w3.org/2000/svg" xmlns:xlink="http://www.w3.org/1999/xlink" x="0px" y="0px"
	 viewBox="0 0 100 100" style="enable-background:new 0 0 100 100;" xml:space="preserve">
<g>
	
		<polyline style="fill:none;stroke:#C99066;stroke-width:2;stroke-linecap:round;stroke-linejoin:round;stroke-miterlimit:10;" points="
		-868,141.9087372 -883,131 -780,104.9087372 	"/>
	
		<polyline style="fill:none;stroke:#C99066;stroke-width:2;stroke-linecap:round;stroke-linejoin:round;stroke-miterlimit:10;" points="
		-753.5623779,102.3180008 -753.5623779,118 -879.6375122,155 -879.6375122,144.6070404 -768.3624878,107.6070404 -768.3624878,118 
		-776.4376221,118 -776.4376221,102.3180008 	"/>
</g>
<polygon style="fill:none;" points="-741,130 -789,130 -907,119 -859,119 "/>
<g>
	
		<polygon style="fill:none;stroke:#C99066;stroke-width:2;stroke-linecap:round;stroke-linejoin:round;stroke-miterlimit:10;" points="
		-615.5623779,61.90625 -615.5623779,75 -623.6375122,75 -623.6375122,64.6070404 -630.3624878,64.6070404 -630.3624878,75 
		-638.4376221,75 -638.4376221,61.90625 -642,61.908741 -627,51 -612,61.908741 	"/>
</g>
<g>
	
		<circle style="fill:none;stroke:#C99066;stroke-width:2;stroke-linecap:round;stroke-linejoin:round;stroke-miterlimit:10;" cx="-627" cy="-57" r="14"/>
	
		<polyline style="fill:none;stroke:#C99066;stroke-width:2;stroke-linecap:round;stroke-linejoin:round;stroke-miterlimit:10;" points="
		-627,-67.4630356 -627,-57 -621.2470093,-51.2470245 	"/>
</g>
<rect x="-651" y="-81" style="fill:none;" width="48" height="48"/>
<rect x="-595" y="-81" style="fill:none;" width="48" height="48"/>
<path style="fill:none;stroke:#C99066;stroke-width:2;stroke-linecap:round;stroke-linejoin:round;stroke-miterlimit:10;" d="
	M-450.5-72c0,0,2,3.6537094,2,5c0,1.0453491,0,2.0455399,0,2.9997253L-437.5-56v2l-11-5c-0.5,12-0.5,12-0.5,12l2.5833435,3.2000008
	V-43L-450.5-44l-4.0833435,1v-0.7999992L-452-47c0,0,0,0-0.5-12l-11,5v-2l11-8.0002747c0-0.9541855,0-1.9543762,0-2.9997253
	C-452.5-68.3462906-450.5-72-450.5-72z"/>
<path style="fill:none;stroke:#C99066;stroke-width:2;stroke-linecap:round;stroke-linejoin:round;stroke-miterlimit:10;" d="
	M-494-70c0,0-1.3996277,4.7850037-2.539032,5.9244308c-0.8847351,0.8847313-1.7312622,1.7312431-2.5388184,2.5388107
	l2.5388184,16.0808372l-1.6927185,1.6926956l-5.078064-13.5415611c-10.5793457,9.7329979-10.5793457,9.7329979-10.5793457,9.7329979
	l-0.5219116,4.8947105L-515.0881348-42l-2.6096191-4.302269L-522-48.9118385l0.677063-0.6770782l4.8947144-0.5219154
	c0,0,0,0,9.7330017-10.5793457l-13.5415344-5.0780869l1.692688-1.6926956l16.0808105,2.5388107
	c0.8075867-0.8075714,1.6540833-1.6540833,2.5388184-2.5388107C-498.7850037-68.6003876-494-70-494-70z"/>
<rect x="-531" y="-81" style="fill:none;" width="48.0833321" height="48"/>
<g>
	<path style="fill:none;stroke:#C99066;stroke-width:2;stroke-linecap:round;stroke-linejoin:round;stroke-miterlimit:10;" d="
		M-574.5022583-67.9894333c-4.0039063,4.0140877-4.0039063,10.522213,0,14.5363007s10.4954834,4.0140915,14.4993286,0
		c4.0039063-4.0140877,4.0039063-10.522213,0-14.5363007C-564.0067749-72.0035248-570.4983521-72.0035248-574.5022583-67.9894333z"
		/>
	
		<line style="fill:none;stroke:#C99066;stroke-width:2;stroke-linecap:round;stroke-linejoin:round;stroke-miterlimit:10;" x1="-574.7061157" y1="-53.3201065" x2="-585" y2="-43"/>
</g>
<rect x="-365" y="-260" style="fill:none;" width="222" height="38"/>
<text transform="matrix(1 0 0 1 -365 -237.0244141)" style="fill:#165978; font-family:'Titillium-Regular'; font-size:32;">WANDERCASE</text>
<g>
	<path style="fill:#165978;" d="M-382.0551758-160.0554199l3.7758789,19.9667969h0.9282227l4.5112305-19.7744141h2.8798828
		l4.5117188,19.7744141h0.9282227l3.7753906-19.9667969h2.527832l-4.4794922,22.1425781h-4.5117188l-4.1918945-18.9106445
		l-4.1914063,18.9106445h-4.5117188l-4.5117188-22.1425781H-382.0551758z"/>
	<path style="fill:#165978;" d="M-351.0791016-160.0554199h5.3754883l6.0795898,22.1425781h-2.4321289l-1.5996094-5.6958008
		h-9.4711914l-1.6000977,5.6958008h-2.4316406L-351.0791016-160.0554199z M-352.5830078-145.8161621h8.3833008
		l-3.3598633-12.1274414h-1.6635742L-352.5830078-145.8161621z"/>
	<path style="fill:#165978;" d="M-336.1352539-160.0554199h4.6079102l8.4790039,19.9667969h0.6723633v-19.9667969h2.4316406
		v22.1425781h-4.5117188l-8.6074219-19.9667969h-0.6079102v19.9667969h-2.4638672V-160.0554199z"/>
	<path style="fill:#165978;" d="M-314.503418-137.9128418v-22.1425781h7.9033203
		c6.4316406,0,8.1914063,4.4799805,8.1914063,10.7514648c0,6.3354492-1.6635742,11.3911133-8.1914063,11.3911133H-314.503418z
		 M-306.6000977-157.8796387h-5.4394531v17.7910156h5.4394531c4.6079102,0,5.6635742-4.4155273,5.6635742-9.215332
		S-301.9921875-157.8796387-306.6000977-157.8796387z"/>
	<path style="fill:#165978;" d="M-293.8637695-160.0554199h13.4711914v2.1757813h-11.0073242v7.6474609h9.0874023v2.144043
		h-9.0874023v7.9995117h11.0073242v2.1757813h-13.4711914V-160.0554199z"/>
	<path style="fill:#165978;" d="M-273.7041016-146.392334v8.4794922h-2.4638672v-22.1425781h8.1914063
		c4.6396484,0,7.0717773,2.0478516,7.0717773,6.7197266c0,3.2636719-1.2802734,5.5356445-4.0639648,6.4316406l4.2558594,8.9912109
		h-2.7197266l-4-8.4794922H-273.7041016z M-267.9765625-157.8796387h-5.7275391v9.3115234h5.7597656
		c3.3276367,0,4.5117188-1.9838867,4.5117188-4.7675781C-263.4326172-156.3757324-264.8725586-157.8796387-267.9765625-157.8796387z
		"/>
	<path style="fill:#165978;" d="M-243.0810547-138.2648926c-1.5678711,0.3198242-3.9995117,0.671875-6.1113281,0.671875
		c-6.6235352,0-8.0957031-4.0317383-8.0957031-11.3271484c0-7.4873047,1.4399414-11.4550781,8.0957031-11.4550781
		c2.2714844,0,4.7036133,0.4160156,6.1113281,0.7041016l-0.0957031,2.0795898
		c-1.4399414-0.2558594-4.0317383-0.5756836-5.7597656-0.5756836c-4.9277344,0-5.7915039,2.9438477-5.7915039,9.2470703
		c0,6.1757813,0.7998047,9.1196289,5.8554688,9.1196289c1.7919922,0,4.159668-0.2880859,5.6958008-0.5761719
		L-243.0810547-138.2648926z"/>
	<path style="fill:#165978;" d="M-234.9204102-160.0554199h5.3754883l6.0795898,22.1425781h-2.4316406l-1.6000977-5.6958008
		h-9.4711914l-1.6000977,5.6958008H-241L-234.9204102-160.0554199z M-236.4243164-145.8161621h8.3833008l-3.3598633-12.1274414
		h-1.6640625L-236.4243164-145.8161621z"/>
	<path style="fill:#165978;" d="M-207.7851563-157.6872559c0,0-4.4477539-0.5439453-6.3032227-0.5439453
		c-3.1357422,0-4.7998047,1.1196289-4.7998047,3.6157227c0,2.8793945,1.5356445,3.359375,5.4077148,4.2236328
		c4.4155273,0.9916992,6.3671875,2.0795898,6.3671875,5.9516602c0,4.8955078-2.6875,6.8154297-7.0712891,6.8154297
		c-2.6240234,0-7.0073242-0.7041016-7.0073242-0.7041016l0.2558594-2.0478516c0,0,4.3515625,0.5761719,6.6235199,0.5761719
		c3.1357574,0,4.7358551-1.3759766,4.7358551-4.4477539c0-2.4960938-1.3120117-3.199707-4.9277344-3.9038086
		c-4.5756836-0.9916992-6.8798828-2.0800781-6.8798828-6.3037109c0-4.2875977,2.815918-5.9511719,7.1357422-5.9511719
		c2.6240234,0,6.6875,0.6396484,6.6875,0.6396484L-207.7851563-157.6872559z"/>
	<path style="fill:#165978;" d="M-202.8564453-160.0554199h13.4711914v2.1757813h-11.0073242v7.6474609h9.0874023v2.144043
		h-9.0874023v7.9995117h11.0073242v2.1757813h-13.4711914V-160.0554199z"/>
</g>
<path style="fill:#165978;" d="M-380.447998-107L-387-129h2.447998L-378-107l0,0"/>
<path style="fill:#165978;" d="M-380-107L-380-107l6.552002-22H-371l-6.552002,22"/>
<path style="fill:#165978;" d="M-366.447998-107L-373-129h2.447998L-364-107l0,0"/>
<path style="fill:#165978;" d="M-366-107L-366-107l6.552002-22H-357l-6.552002,22"/>
<path style="fill:#165978;" d="M-385-104l5,22l0,0l5-22l2.5604248,0.1911469l4.482666,19.6470795h0.9222412L-363.2835999-104
	h2.5115662l-4.4506531,22h-4.482666l-4.1648865-18.7888794L-378.034668-82H-382l-5-22H-385z"/>
<path style="fill:#165978;" d="M-349.9595642-88h5.3408813l6.0404358,22h-2.4164734l-1.5892944-5.6591263h-9.4102173
	L-353.5840149-66H-356L-349.9595642-88z M-351.4537659-73.8524323h8.3293152l-3.3382263-12.0493469h-1.6528625
	L-351.4537659-73.8524323z"/>
<path style="fill:#165978;" d="M-337.663269-128h3.9742432l9.0284119,19.8382263l0,0V-128h2.4159851v22h-4.4186401
	l-8.5519714-19.8382263l0,0V-106h-2.4480286V-128z"/>
<path style="fill:#165978;" d="M-389-72l1.3613281,1.1617737V-51h-2.447998v-22"/>
<path style="fill:#165978;" d="M-316.0314331-106v-22h7.8524475c6.3902283,0,8.1386414,4.4511337,8.1386414,10.6822357
	c0,6.2946548-1.6528625,11.3177643-8.1386414,11.3177643H-316.0314331z M-308.1789856-125.8382263h-5.4044189v17.6764526h5.4044189
	c4.5782471,0,5.6271057-4.3870926,5.6271057-9.1559906S-303.6007385-125.8382263-308.1789856-125.8382263z"/>
<path style="fill:#165978;" d="M-295.3917847-128h13.3844604v2.1617737h-10.9364319v7.5982132h9.0288696v2.1302414h-9.0288696
	v7.947998h10.9364319V-106h-13.3844604V-128z"/>
<path style="fill:#165978;" d="M-275.2479553-114.4248886V-106h-2.4480286v-22h8.1386719
	c4.6097717,0,7.0262451,2.034668,7.0262451,6.6764603c0,3.2426529-1.2720337,5.5-4.0378113,6.3902206L-262.3404236-106h-2.7022095
	l-3.9742432-8.4248886H-275.2479553z M-269.557312-125.8382263h-5.6906433v9.251564h5.7226563
	c3.3062134,0,4.482666-1.9711151,4.482666-4.7368774C-265.0426331-124.3440094-266.4732971-125.8382263-269.557312-125.8382263z"/>
<path style="fill:#165978;" d="M-245.0968628-106.6488037C-246.6109009-106.3399658-248.9590454-106-250.9983521-106
	c-6.3961182,0-7.817749-3.8933105-7.817749-10.9382324c0-7.2302246,1.3905029-11.0617676,7.817749-11.0617676
	c2.1934967,0,4.5421143,0.4017334,5.9014893,0.679924l-0.0924072,2.0081863
	c-1.3905029-0.2470703-3.8933105-0.5559158-5.5620117-0.5559158c-4.7585297,0-5.5926514,2.8427734-5.5926514,8.9295731
	c0,5.9637375,0.7723389,8.8065109,5.6544189,8.8065109c1.7304688,0,4.0168457-0.2781982,5.5002441-0.5563889
	L-245.0968628-106.6488037z"/>
<path style="fill:#165978;" d="M-236.4875641-128h3.7065735l6.0404358,22h-2.4159851l-1.5897827-5.6591263h-7.7759094
	L-240.1120148-106h-2.4159851L-236.4875641-128z M-237.981781-113.8524323h6.6950073L-234.625-125.9017792h-0.019043
	L-237.981781-113.8524323z"/>
<path style="fill:#165978;" d="M-234.3813171-88h3.6940765l6.0404358,22h-2.4159851l-1.5897827-5.6591263h-7.7634125
	L-238.0057831-66h-2.4159851L-234.3813171-88z M-235.8755341-73.8524323h6.6825104l-3.3382263-12.0493469h-0.006546
	L-235.8755341-73.8524323z"/>
<path style="fill:#165978;" d="M-210.7801819-125.3736572c0,0-4.2950439-0.5252686-6.0868073-0.5252686
	c-3.0280762,0-4.6349945,1.0811844-4.6349945,3.4915771c0,2.7805328,1.4829102,3.2440338,5.2220306,4.0786133
	c4.2639313,0.9576492,6.1485748,2.0081863,6.1485748,5.7473145c0,4.727417-2.5952301,6.5814209-6.8284912,6.5814209
	c-2.5339355,0-6.7667389-0.679924-6.7667389-0.679924l0.2470856-1.9775391c0,0,4.2021484,0.5563889,6.3961029,0.5563889
	c3.0280762,0,4.5732422-1.3287354,4.5732422-4.2950439c0-2.4103851-1.2669678-3.0898438-4.7585449-3.7697678
	c-4.4185791-0.9576492-6.6436615-2.0086594-6.6436615-6.0872726c0-4.1403885,2.7192383-5.7468414,6.8907471-5.7468414
	c2.5339203,0,6.4578705,0.6176834,6.4578705,0.6176834L-210.7801819-125.3736572z"/>
<path style="fill:#165978;" d="M-205.384552-128h13.3844452v2.1617737h-10.9364471v7.5982132h9.0289001v2.1302414h-9.0289001
	v7.947998h10.9364471V-106h-13.3844452V-128z"/>
<path style="fill:#2E3192;" d="M-559-145h-24c-6.6274414,0-12,5.3725586-12,12v24c0,6.6274414,5.3725586,12,12,12h24
	c6.6274414,0,12-5.3725586,12-12v-24C-547-139.6274414-552.3725586-145-559-145z M-555-113c0,4.4182739-3.5817261,8-8,8h-16
	c-4.4182739,0-8-3.5817261-8-8v-16c0-4.4182739,3.5817261-8,8-8h16c4.4182739,0,8,3.5817261,8,8V-113z"/>
<rect x="-518" y="-145" style="fill:none;" width="48" height="48"/>
<path style="fill:#231F20;" d="M-470-109c0,6.6274185-5.3725891,12-12,12h-24c-6.6274414,0-12-5.3725815-12-12v-24
	c0-6.6274109,5.3725586-12,12-12h24c6.6274109,0,12,5.3725891,12,12V-109z"/>
<path style="fill:#2E3192;" d="M-478.5-113.25c0,4.2802048-3.4697876,7.75-7.75,7.75h-15.5c-4.2802124,0-7.75-3.4697952-7.75-7.75
	v-15.5c0-4.2802124,3.4697876-7.75,7.75-7.75h15.5c4.2802124,0,7.75,3.4697876,7.75,7.75V-113.25z"/>
<path style="fill:#C49A6C;" d="M-565-129c0,6.0751343-4.9248657,11-11,11s-11-4.9248657-11-11s4.9248657-16,11-16
	S-565-135.0751343-565-129z"/>
<path style="fill:#2E3192;" d="M-611-145h-24c-6.6274414,0-12,5.3725586-12,12v24c0,6.6274414,5.3725586,12,12,12h24
	c6.6274414,0,12-5.3725586,12-12v-24C-599-139.6274414-604.3725586-145-611-145z M-607-113c0,4.4182739-3.5817261,8-8,8h-16
	c-4.4182739,0-8-3.5817261-8-8v-16c0-4.4182739,3.5817261-8,8-8h16c4.4182739,0,8,3.5817261,8,8V-113z"/>
<path style="fill:#C49A6C;" d="M-617-129c0,6.0751343-4.9248657,11-11,11s-11-4.9248657-11-11s4.9248657-16,11-16
	S-617-135.0751343-617-129z"/>
<path style="fill:#C49A6C;" d="M-614-185h6c0,0,2,0,3,3s5,13,5,13"/>
<path style="fill:#C49A6C;" d="M-600-169h-6c0,0-2,0-3-3s-5-13-5-13"/>
<polygon style="fill:none;stroke:#C99066;stroke-width:2;stroke-linecap:round;stroke-linejoin:round;stroke-miterlimit:10;" points="
	-571.0230103,-162.9317932 -562.3850098,-182.3850098 -581.8381958,-173.7470245 -581.8381958,-173.7470093 
	-572.3540039,-172.4159851 "/>
<g>
	<path style="fill:#C99066;" d="M-512.8405762,30.503418c2.9810791,0.2583771,5.9677124,0.481205,8.9450073,0.768528
		c2.9775696,0.2857628,5.9596558,0.5391502,8.9332886,0.8529587l8.9258728,0.9060822l8.9164124,0.9732628
		c0.6529846,0.0712738,1.1557312,0.5696526,1.260498,1.1866493l0.0146179,0.0884399l1.4966736,8.8429146l1.4381714,8.8511353
		l1.4265747,8.8527603l1.3620911,8.8618011l-4.2741394-0.5989456l3.9239197-9.1579437l3.9926453-9.1274109
		c2.6824341-6.0757675,5.3079224-12.1768417,8.0371094-18.2318306l8.1655884-18.1747894l8.3186646-18.106802l2.8267212,2.8267002
		l-9.1665955,3.9044781l-9.1752014,3.8850422c-6.1085205,2.6087151-12.2557983,5.1300774-18.3878174,7.6859283
		c-6.1263123,2.5686035-12.2960205,5.0394592-18.4437866,7.5597992l-9.2540894,3.7074165l-9.2822876,3.6438942l8.9278564-4.442131
		l8.9560547-4.3786049c5.9923096-2.8703423,11.9627075-5.7901649,17.9764404-8.6122437
		c6.0081177-2.8348312,12.0009155-5.7041473,18.0325012-8.4861145l9.0349121-4.2009792l9.0435486-4.1815434
		c1.0673523-0.4935131,2.3326721-0.0283375,2.8261719,1.0389996c0.2624817,0.5676842,0.2537842,1.1913738,0.0274963,1.7251587
		l-0.0268555,0.0626431l-7.853363,18.313427l-8.0064392,18.2454414c-2.6614685,6.085083-5.4266663,12.1240921-8.1349182,18.1884003
		l-4.0933533,9.0827026l-4.1620789,9.0521698l-0.0245361,0.0533447c-0.5158691,1.121994-1.8436279,1.6133423-2.9656372,1.0974579
		c-0.7260132-0.3338089-1.1882019-1.011795-1.2840576-1.7497635l-1.1298523-8.8944016l-1.0653992-8.90345l-1.0537415-8.9050827
		l-0.9952698-8.9132881l1.2749023,1.2748642l-8.8399048-1.5186882l-8.8304443-1.585865
		c-2.9451294-0.5168419-5.8817749-1.0941086-8.822998-1.6389923
		C-506.9709473,31.6835709-509.9035645,31.0759125-512.8405762,30.503418z"/>
</g>
<g>
	<path style="fill:#C99066;" d="M-472.3441162,166c1.190033-3.105011,2.34729-6.2245789,3.5718079-9.3143005
		c1.2102356-3.0960541,2.4159241-6.1941071,3.6603699-9.2749634l3.7149353-9.2507629l3.7770081-9.2231903
		c2.5038452-6.1550598,5.1174927-12.2613983,7.6708374-18.3944855c1.272644-3.0683441,2.5950317-6.1145935,3.9015808-9.1678619
		l3.9272156-9.1564865l3.0617676,3.0617599c-6.0249023,2.7970123-12.1030273,5.4740677-18.1562805,8.2071991l-9.0879822,4.0814209
		l-9.1178284,4.0142212l-9.1222229,4.0043182c-3.0420227,1.3318787-6.076355,2.6811218-9.133728,3.9783936l-18.3173828,7.8444061
		l0.6282654-0.4313507l-1.184906-3.5403442l17.7032471,2.8692474l8.8414917,1.5070343
		c2.946228,0.508728,5.8964844,0.9890137,8.8386841,1.5266876l0.0926514,0.016922
		c0.4912415,0.0897827,0.845459,0.4955139,0.8930054,0.9687347c0.4266968,4.2759399,0.8989868,8.5454712,1.288269,12.8266754
		l0.5994263,6.4196014l0.5463257,6.427063l-1.2438965-6.3291626l-1.1907959-6.3366241
		c-0.8041992-4.2229462-1.5253906-8.4575653-2.2921753-12.6857758l0.9854126,0.9854279
		c-2.9765625-0.2929688-5.9450073-0.6433258-8.917511-0.9652557l-8.9147339-0.9849091l-17.8091736-2.114624
		c-1.1369019-0.1349945-1.9490967-1.1660614-1.8141479-2.3029785c0.0880737-0.7415924,0.5574341-1.3450317,1.1886597-1.6375427
		l0.0689697-0.0314026l18.1028442-8.3275909c3.0126343-1.398056,6.0483398-2.7441406,9.076355-4.107605l9.0878601-4.081665
		l9.0922546-4.0717773l9.1221313-4.0045776c6.086792-2.6575317,12.1487427-5.3711395,18.263916-7.9647827l0.0629883-0.0267181
		c1.1736145-0.4977722,2.5285645,0.0501175,3.0263367,1.2237473c0.2626953,0.6193695,0.2305603,1.2971039-0.0274658,1.86483
		l-4.1588135,9.0536499c-1.3887634,3.0167847-2.7616882,6.0405731-4.1844177,9.0422821
		c-2.8373413,6.0069885-5.6143799,12.040741-8.5011902,18.0257721l-4.3090515,8.9869537l-4.3710938,8.9593811
		c-1.4508667,2.9891815-2.9405212,5.9611816-4.4256287,8.9351654C-469.3007813,160.0844879-470.8388062,163.0349731-472.3441162,166
		z"/>
</g>
<g>
	<path style="fill:#C49A6C;" d="M-494-278c11.0723877,0,17.1715698,0,19.5857849,2.4142151S-472-267.0723877-472-256
		c0,12.1308441-9.8691406,22-22,22s-22-9.8691559-22-22C-516-268.1308594-506.1308594-278-494-278 M-494-280
		c-13.2548218,0-24,10.7451782-24,24c0,13.254837,10.7451782,24,24,24s24-10.745163,24-24C-470-280-470-280-494-280L-494-280z"/>
</g>
<polygon style="fill:none;stroke:#C99066;stroke-width:2;stroke-linecap:round;stroke-linejoin:round;stroke-miterlimit:10;" points="
	-494.3211975,-239 -481,-269 -510.9999695,-255.6788483 -511,-255.6788177 -496.3738403,-253.6261597 "/>
<g>
	<path style="fill:#C49A6C;" d="M-479-199c12.1308594,0,22,9.8691559,22,22s-9.8691406,22-22,22s-22-9.8691559-22-22
		S-491.1308594-199-479-199 M-479-201c-13.2548218,0-24,10.745163-24,24s10.7451782,24,24,24s24-10.745163,24-24
		S-465.7451782-201-479-201L-479-201z"/>
</g>
<polygon style="fill:none;stroke:#C99066;stroke-width:2;stroke-linecap:round;stroke-linejoin:round;stroke-miterlimit:10;" points="
	-467.2062988,-161.6836548 -479,-192.3163452 -490.7937012,-161.6836853 -490.7937012,-161.6836548 -479,-170.5744476 "/>
<g>
	<path style="fill:#C99066;" d="M-348.9700623-122.128212l3.6649475,10.1164551l-2.4144592-1.9343491l-1.2504883-1.0018311
		l-1.2504883,1.0018311l-2.4144897,1.9343719L-348.9700623-122.128212 M-348.9700623-127.9999847l-7.9700928,21.9999695v0.0000305
		l7.9700928-6.3852615L-341-105.9999847L-348.9700623-127.9999847L-348.9700623-127.9999847z"/>
</g>
<polygon style="fill:#165978;" points="-133.2791443,-128 -138.8311462,-109.3577271 -144.3831482,-128 -144.8311462,-128 
	-146.8311462,-128 -147.2791443,-128 -152.8311462,-109.3577271 -158.3831482,-128 -160.8311462,-128 -154.2791443,-106 
	-153.8311462,-106 -151.8311462,-106 -151.3831482,-106 -145.8311462,-124.6422729 -140.2791443,-106 -139.8311462,-106 
	-137.8311462,-106 -137.3831482,-106 -130.8311462,-128 "/>
<path style="fill:#165978;" d="M-112.7443008-128h3.9742432l9.0284042,19.8382263l0,0V-128h2.4159851v22h-4.4186325
	l-8.5519943-19.8382263l0,0V-106h-2.4480057V-128z"/>
<path style="fill:#165978;" d="M-91.1124649-106v-22h7.8524323c6.3902283,0,8.1386642,4.4511337,8.1386642,10.6822357
	C-75.1213684-111.0231094-76.774231-106-83.2600327-106H-91.1124649z M-83.2600327-125.8382263h-5.4044266v17.6764526h5.4044266
	c4.5782394,0,5.6271057-4.3870926,5.6271057-9.1559906S-78.6817932-125.8382263-83.2600327-125.8382263z"/>
<path style="fill:#165978;" d="M-70.4728165-128h13.3844528v2.1617737h-10.9364471v7.5982132h9.0288849v2.1302414h-9.0288849
	v7.947998h10.9364471V-106h-13.3844528V-128z"/>
<path style="fill:#165978;" d="M-50.6331367-114.4248886V-106h-2.4480057v-22h8.1386642
	c4.6097717,0,7.0262413,2.034668,7.0262413,6.6764603c0,3.2426529-1.2720299,5.5-4.037796,6.3902206L-37.7255783-106h-2.7022133
	l-3.974247-8.4248886H-50.6331367z M-44.9424782-125.8382263h-5.6906586v9.251564h5.7226753
	c3.3062096,0,4.4826698-1.9711151,4.4826698-4.7368774C-40.4277916-124.3440094-41.8584633-125.8382263-44.9424782-125.8382263z"/>
<path style="fill:#165978;" d="M-19.0811405-106.6488037C-20.5951786-106.3399658-22.9433289-106-24.9826374-106
	c-6.3961163,0-7.8177357-3.8933105-7.8177357-10.9382324C-32.8003731-124.168457-31.409874-128-24.9826374-128
	c2.1934948,0,4.5421162,0.4017334,5.9014969,0.679924l-0.0924168,2.0081863
	c-1.390501-0.2470703-3.8933086-0.5559158-5.5620041-0.5559158c-4.7585411,0-5.5926533,2.8427734-5.5926533,8.9295731
	c0,5.9637375,0.7723427,8.8065109,5.6544209,8.8065109c1.7304649,0,4.0168457-0.2781982,5.5002365-0.5563889
	L-19.0811405-106.6488037z"/>
<path style="fill:#165978;" d="M-10.0406981-128h3.7065678l6.0404425,22h-2.4159832l-1.5897944-5.6591263h-7.775898L-13.6651573-106
	h-2.4159832L-10.0406981-128z M-11.5349207-113.8524323h6.6950126l-3.3382287-12.0493469h-0.0190401L-11.5349207-113.8524323z"/>
<path style="fill:#165978;" d="M16.0510559-125.3736572c0,0-4.2950411-0.5252686-6.0868025-0.5252686
	c-3.0280766,0-4.6350036,1.0811844-4.6350036,3.4915771c0,2.7805328,1.4829183,3.2440338,5.2220416,4.0786133
	c4.2639198,0.9576492,6.1485701,2.0081863,6.1485701,5.7473145c0,4.727417-2.5952244,6.5814209-6.8284969,6.5814209
	c-2.5339274,0-6.7667279-0.679924-6.7667279-0.679924l0.2470746-1.9775391c0,0,4.2021518,0.5563889,6.3961163,0.5563889
	c3.0280771,0,4.5732355-1.3287354,4.5732355-4.2950439c0-2.4103851-1.266964-3.0898438-4.7585411-3.7697678
	c-4.4185777-0.9576492-6.6436625-2.0086594-6.6436625-6.0872726C2.9188595-126.3935471,5.638093-128,9.8095961-128
	c2.5339279,0,6.4578848,0.6176834,6.4578848,0.6176834L16.0510559-125.3736572z"/>
<path style="fill:#165978;" d="M21.4466915-128h13.3844509v2.1617737H23.8946934v7.5982132h9.0288868v2.1302414h-9.0288868v7.947998
	h10.9364491V-106H21.4466915V-128z"/>
<g>
	<path style="fill:#C8E052;" d="M-124.0510864-122.1282272l3.664917,10.1164627l-2.4144287-1.9343491l-1.2504883-1.0018234
		l-1.2504883,1.0018234l-2.4144897,1.9343719L-124.0510864-122.1282272 M-124.0510864-128l-7.9700928,21.9999695V-106
		l7.9700928-6.3852463L-116.0810547-106L-124.0510864-128L-124.0510864-128z"/>
</g>
<g>
	<path style="fill:#C8E052;" d="M-296.9700317,3.8717728l3.664917,10.1164627l-2.4144287-1.9343491l-1.2504883-1.0018234
		l-1.2504883,1.0018234l-2.4144897,1.9343719L-296.9700317,3.8717728 M-296.9700317-2l-7.9700928,21.9999695V20l7.9700928-6.3852463
		L-289,20L-296.9700317-2L-296.9700317-2z"/>
</g>
<g>
	<path style="fill:#C8E052;" d="M-230.666687,2.6666794l-4.5619202,9.744957l-0.3394775-3.0750847l-0.1758118-1.5926323
		l-1.5926208-0.175827l-3.0751343-0.3395004L-230.666687,2.6666794 M-226.5147095-1.4852791h0.0050049H-226.5147095z
		 M-226.5147095-1.4852791l-21.1920471,9.9206314v0.0000191l10.1507568,1.1206398l1.120636,10.1507492L-226.5147095-1.4852791
		L-226.5147095-1.4852791z"/>
</g>
<polygon style="fill:#165978;" points="-133.2791443,-100 -138.8311462,-81.3577271 -144.3831482,-100 -144.8311462,-100 
	-146.8311462,-100 -147.2791443,-100 -152.8311462,-81.3577271 -158.3831482,-100 -160.8311462,-100 -154.2791443,-78 
	-153.8311462,-78 -151.8311462,-78 -151.3831482,-78 -145.8311462,-96.6422729 -140.2791443,-78 -139.8311462,-78 -137.8311462,-78 
	-137.3831482,-78 -130.8311462,-100 "/>
<path style="fill:#165978;" d="M-112.7443008-100h3.9742432l9.0284042,19.8382263l0,0V-100h2.4159851v22h-4.4186325
	l-8.5519943-19.8382263l0,0V-78h-2.4480057V-100z"/>
<path style="fill:#165978;" d="M-91.1124649-78v-22h7.8524323c6.3902283,0,8.1386642,4.4511337,8.1386642,10.6822357
	C-75.1213684-83.0231094-76.774231-78-83.2600327-78H-91.1124649z M-83.2600327-97.8382263h-5.4044266v17.6764526h5.4044266
	c4.5782394,0,5.6271057-4.3870926,5.6271057-9.1559906S-78.6817932-97.8382263-83.2600327-97.8382263z"/>
<path style="fill:#165978;" d="M-70.4728165-100h13.3844528v2.1617737h-10.9364471v7.5982132h9.0288849v2.1302414h-9.0288849
	v7.947998h10.9364471V-78h-13.3844528V-100z"/>
<path style="fill:#165978;" d="M-50.6331367-86.4248886V-78h-2.4480057v-22h8.1386642
	c4.6097717,0,7.0262413,2.034668,7.0262413,6.6764603c0,3.2426529-1.2720299,5.5-4.037796,6.3902206L-37.7255783-78h-2.7022133
	l-3.974247-8.4248886H-50.6331367z M-44.9424782-97.8382263h-5.6906586v9.251564h5.7226753
	c3.3062096,0,4.4826698-1.9711151,4.4826698-4.7368774C-40.4277916-96.3440094-41.8584633-97.8382263-44.9424782-97.8382263z"/>
<path style="fill:#165978;" d="M-19.0811405-78.6488037C-20.5951786-78.3399658-22.9433289-78-24.9826374-78
	c-6.3961163,0-7.8177357-3.8933105-7.8177357-10.9382324C-32.8003731-96.168457-31.409874-100-24.9826374-100
	c2.1934948,0,4.5421162,0.4017334,5.9014969,0.679924l-0.0924168,2.0081863
	c-1.390501-0.2470703-3.8933086-0.5559158-5.5620041-0.5559158c-4.7585411,0-5.5926533,2.8427734-5.5926533,8.9295731
	c0,5.9637375,0.7723427,8.8065109,5.6544209,8.8065109c1.7304649,0,4.0168457-0.2781982,5.5002365-0.5563889L-19.0811405-78.6488037
	z"/>
<path style="fill:#165978;" d="M-10.0406981-100h3.7065678l6.0404425,22h-2.4159832l-1.5897944-5.6591263h-7.775898L-13.6651573-78
	h-2.4159832L-10.0406981-100z M-11.5349207-85.8524323h6.6950126l-3.3382287-12.0493469h-0.0190401L-11.5349207-85.8524323z"/>
<path style="fill:#165978;" d="M16.0510559-97.3736572c0,0-4.2950411-0.5252686-6.0868025-0.5252686
	c-3.0280766,0-4.6350036,1.0811844-4.6350036,3.4915771c0,2.7805328,1.4829183,3.2440338,5.2220416,4.0786133
	c4.2639198,0.9576492,6.1485701,2.0081863,6.1485701,5.7473145C16.6998615-79.8540039,14.1046371-78,9.8713646-78
	c-2.5339274,0-6.7667279-0.679924-6.7667279-0.679924l0.2470746-1.9775391c0,0,4.2021518,0.5563889,6.3961163,0.5563889
	c3.0280771,0,4.5732355-1.3287354,4.5732355-4.2950439c0-2.4103851-1.266964-3.0898438-4.7585411-3.7697678
	c-4.4185777-0.9576492-6.6436625-2.0086594-6.6436625-6.0872726C2.9188595-98.3935471,5.638093-100,9.8095961-100
	c2.5339279,0,6.4578848,0.6176834,6.4578848,0.6176834L16.0510559-97.3736572z"/>
<path style="fill:#165978;" d="M21.4466915-100h13.3844509v2.1617737H23.8946934v7.5982132h9.0288868v2.1302414h-9.0288868v7.947998
	h10.9364491V-78H21.4466915V-100z"/>
<g>
	<polygon style="fill:#C8E052;" points="-116.0810394,-78 -124.0511169,-100 -132.0211945,-78.0000305 -132.0211945,-78 
		-124.0511169,-84.3852539 	"/>
</g>
<g>
	<path style="fill:#C49A6C;" d="M-571-251c12.1308594,0,22,9.8691559,22,22s-9.8691406,22-22,22s-22-9.8691559-22-22
		S-583.1308594-251-571-251 M-571-253c-13.2548218,0-24,10.745163-24,24s10.7451782,24,24,24s24-10.745163,24-24
		S-557.7451782-253-571-253L-571-253z"/>
</g>
<g>
	<path style="fill:#C99066;" d="M-617.0753174-4.6344357c-8.2145996,3.8999062-16.4832153,7.6782227-24.7226563,11.5222187
		l0.1498413-0.1028614l-0.2825928-0.844532l13.6706543,1.7748508c0.2857056,0.0370941,0.5018311,0.2598,0.5429077,0.5311317
		l0.0019531,0.0137177l2.0557861,13.6312332l-1.4494629-0.2833023c2.7982788-4.9761391,5.6589966-9.916069,8.5040283-14.8651066
		l8.5401611-14.8441277c0.2581177-0.4486008,0.8309937-0.6030388,1.2796021-0.3449478
		c0.09729,0.0559902,0.1807861,0.1267948,0.2492065,0.2079296l0.0083008,0.0103168
		c3.4588013,4.1338577,5.4474487,9.4860592,5.5050049,14.8868599l0.0115967,0.2526836l0.0028687,0.0631733l-0.0018311,0.1118488
		l-0.0056763,0.1211624l-0.0228271,0.4846649l-0.0456543,0.9693222c-0.0012207,0.6315956-0.1234741,1.3218498-0.2290649,2.0037231
		c-0.0964355,0.6849861-0.2074585,1.3638496-0.4005127,2.0069809c-0.1895142,0.6471748-0.2960815,1.3199387-0.5597534,1.9436836
		c-0.8394165,2.5665436-2.1642456,4.965786-3.8337402,7.0774536c-1.666626,2.1156845-3.6828003,3.9507523-5.9439087,5.4101181
		c-2.2533569,1.473896-4.7780762,2.5274162-7.3986206,3.1249733c-0.6466064,0.1913605-1.3150635,0.2733078-1.9799805,0.3723412
		c-0.6638184,0.1095123-1.3290405,0.2022095-2.0023193,0.2096176c-0.6836548,0.01231-1.3134155,0.1071548-2.0407104,0.0487633
		l-1.9386597-0.1060219c-2.7439575-0.3080597-5.3193359-1.0510139-7.7522583-2.2018433
		c-2.4206543-1.1515388-4.6451416-2.7193375-6.526062-4.6227989c-1.8769531-1.9071198-3.4307861-4.1209068-4.5802612-6.5249557
		c-1.1364136-2.4049377-1.9296875-4.9916458-2.1749268-7.642128c-0.0967407-0.6572418-0.0742798-1.3256264-0.1160889-1.9871254
		c-0.0032959-0.3423767-0.048645-0.6384926-0.0168457-1.0184402l0.0588989-0.9686527
		c0.0355225-0.6446266,0.0641479-1.2881355,0.1974487-1.9575806c0.1237793-0.6568546,0.1763916-1.3365021,0.3623657-1.9714928
		c0.5631104-2.5918274,1.6638794-5.0475388,3.0982666-7.2536926c1.4370728-2.2086487,3.2375488-4.1691742,5.3028564-5.7835655
		C-637.4265137-14.4349337-632.1714478-16.0834541-627-16c-2.5900879,0.0846024-5.1483154,0.5865602-7.5552979,1.4780293
		c-2.4046631,0.8891363-4.6762695,2.1583586-6.6247559,3.8144875c-1.9578857,1.6403408-3.6349487,3.5993309-4.946167,5.7716064
		c-1.2990112,2.1751442-2.2844238,4.5487194-2.7800903,7.0290756c-0.1668091,0.6118679-0.1954956,1.2345314-0.302124,1.8495407
		c-0.1142578,0.6042995-0.1312256,1.2549896-0.1531372,1.9033642l-0.0389404,0.9696655
		c-0.0220337,0.2661552,0.02771,0.6161461,0.0377197,0.9198761c0.0541382,0.6276054,0.0425415,1.2614899,0.1484375,1.8825417
		c0.2823486,2.5061111,1.0861816,4.9304123,2.2008057,7.1700249c1.1279907,2.2385559,2.628479,4.2835159,4.4187012,6.0301361
		c1.7902832,1.751709,3.9073486,3.1387291,6.1564331,4.1977692c2.2456665,1.05299,4.713562,1.7259369,7.1173096,1.9884911
		l1.9376221,0.092701c0.5649414,0.0491562,1.227356-0.0461464,1.8359985-0.0605202
		c0.6238403-0.008625,1.2387695-0.1004105,1.8518677-0.206768c0.6142578-0.0958862,1.2322998-0.172596,1.8279419-0.3563805
		c2.4176025-0.567543,4.7409668-1.554821,6.8095703-2.930336c2.0760498-1.3610077,3.9226685-3.0657005,5.4438477-5.0233307
		c1.5240479-1.9538574,2.727356-4.1666183,3.4793091-6.5273514c0.2417603-0.572422,0.3286133-1.1927681,0.5006104-1.7864761
		c0.1777954-0.600029,0.267334-1.1991119,0.3480835-1.7968597c0.0921021-0.59692,0.1972656-1.1824532,0.2076416-1.8485031
		l0.0522461-0.9689903l0.026123-0.4844971l0.0064697-0.1211224l0.0016479-0.0302811
		c-0.00177,0.0902004-0.0012207,0.0083485-0.0018921,0.0209694l-0.0025024-0.0580082l-0.0097656-0.2320404
		c-0.0188599-4.9596996-1.8071899-9.883625-4.9701538-13.7190247l1.5368652-0.1266861l-8.6407471,14.7858391
		c-2.881958,4.9276199-5.7481689,9.8643456-8.6768799,14.7648621l-0.0093994,0.0157394
		c-0.2205811,0.3690453-0.6985474,0.489418-1.0675659,0.2688675c-0.2115479-0.1264267-0.3418579-0.3413391-0.3726196-0.5679321
		l-1.7757568-13.6705284l0.5446167,0.5446243l-13.6311035-2.0567207l-0.0142212-0.002142
		c-0.2702637-0.0407829-0.4563599-0.2929554-0.4155273-0.563242c0.0266113-0.1763649,0.144043-0.317152,0.2969971-0.3821697
		C-633.8248901,2.4439774-625.4771118-1.1560249-617.0753174-4.6344357z"/>
</g>
<polygon style="fill:none;stroke:#C99066;stroke-width:2;stroke-linecap:round;stroke-linejoin:round;stroke-miterlimit:10;" points="
	-569.321167,-214 -556,-244 -586,-230.6788483 -586,-230.6788177 -571.3738403,-228.6261597 "/>
<g>
	<path style="fill:#C49A6C;" d="M-559-192c5.5140381,0,10,3.7009277,10,8.25v20.5c0,4.5490723-4.4859619,8.25-10,8.25h-24
		c-5.5140381,0-10-3.7009277-10-8.25v-20.5c0-4.5490723,4.4859619-8.25,10-8.25H-559 M-559-194h-24
		c-6.6274414,0-12,4.5890808-12,10.25v20.5c0,5.6609192,5.3725586,10.25,12,10.25h24c6.6274414,0,12-4.5890808,12-10.25v-20.5
		C-547-189.4109192-552.3725586-194-559-194L-559-194z"/>
</g>
<g>
	<path style="fill:#C99066;" d="M-567-199c1.1027832,0,2,0.8972015,2,2l0.0028076,0.5445709
		c0.003479,0.4501953,0.0084229,1.0781403-0.0371094,1.4554291H-577c-0.0177612,0-0.0343628-0.0002289-0.0498657-0.0006409
		c-0.0772095-0.4060211-0.0761108-1.203537-0.0753784-1.7619781L-577.125-197c0-1.1027985,0.8972168-2,2-2H-567 M-567-201h-8.125
		c-2.2091064,0-4,1.790863-4,4s-0.0841064,4,2.125,4h12c2.2091064,0,2-1.790863,2-4S-564.7908936-201-567-201L-567-201z"/>
</g>
<path style="fill:#165978;" d="M-303-44l-7-22h2l7,22l0,0"/>
<path style="fill:#165978;" d="M-303-44L-303-44l7-22h2l-7,22"/>
<path style="fill:#165978;" d="M-289-44l-7-22h2l7,22l0,0"/>
<path style="fill:#165978;" d="M-289-44L-289-44l7-22h2l-7,22"/>
<g>
	<path style="fill:#C99066;" d="M-273-59.4037781l2.8293762,8.8923378l-1.4815369-1.351429L-273-53.0923386l-1.3478394,1.2294693
		l-1.4815369,1.351429L-273-59.4037781 M-273-66l-7,21.9999695V-44l7-6.3852615L-266-44L-273-66L-273-66z"/>
</g>
<circle style="fill:none;stroke:#C8E052;stroke-width:2;stroke-linecap:round;stroke-miterlimit:10;" cx="-235" cy="7" r="18"/>
<g>
	<path style="fill:#FFFFFF;" d="M-158.6077881,2.6666718l-4.5619507,9.7449799l-0.3394775-3.0751114l-0.1758423-1.5926208
		l-1.5925903-0.175827l-3.0751343-0.3395004L-158.6077881,2.6666718 M-154.4558716-1.4852791h0.0050049H-154.4558716z
		 M-154.4558716-1.4852791l-21.1920166,9.9206314v0.0000191l10.1507568,1.1206398l1.1206665,10.1507492L-154.4558716-1.4852791
		L-154.4558716-1.4852791z"/>
</g>
<circle style="fill:none;stroke:#FFFFFF;stroke-linecap:round;stroke-miterlimit:10;" cx="-162.9411011" cy="7" r="18"/>
<rect x="-259" y="-17" style="fill:none;" width="48" height="48"/>
<rect x="-186.9411011" y="-17" style="fill:none;" width="48" height="48"/>
<path style="fill:#FFFFFF;" d="M60.9243813,36.897171L48.5889244,63.2349548l-0.917942-8.3111115l-0.4754753-4.3043823
	l-4.3063469-0.4752083l-8.3151207-0.9175682L60.9243813,36.897171 M72.1511078,25.6756821h0.0135345H72.1511078z
	 M72.1511078,25.6756821L14.8481665,52.4881973v0.0000534l27.4475174,3.0287552l3.0302658,27.4344559L72.1511078,25.6756821
	L72.1511078,25.6756821z"/>
<g>
	<path style="fill:#FFFFFF;" d="M50,100c-13.3614998,0-25.9242153-5.2008514-35.3723259-14.6444778
		c-19.5035648-19.4956207-19.5035648-51.2154236,0-70.7110443C24.0757847,5.2008553,36.6385002,0,50,0
		s25.9242172,5.2008553,35.3723297,14.6444788c19.5035629,19.4956207,19.5035629,51.2154236,0,70.7110443
		C75.9242172,94.7991486,63.3614998,100,50,100z M50,2.7027028c-12.6392937,0-24.522049,4.9197636-33.4605255,13.8526716
		c-18.4486389,18.4411964-18.4486389,48.4480591,0,66.8892517C25.477951,92.377533,37.3607063,97.2972946,50,97.2972946
		s24.522049-4.9197617,33.4605255-13.8526688c18.4486389-18.4411926,18.4486389-48.4480553,0-66.8892517
		C74.522049,7.6224661,62.6392937,2.7027028,50,2.7027028z"/>
</g>
</svg>
